<svg width="89" height="83" viewBox="0 0 89 83" fill="none" xmlns="http://www.w3.org/2000/svg">
<g id="Icon" opacity="0.2">
<path id="Vector" d="M15.7442 55.4573L35.7307 45.9486L31.7869 29.6021C31.5867 28.7719 32.0005 27.918 32.7843 27.5742C33.5624 27.2291 34.4776 27.4908 34.9601 28.1956L45.5623 43.6861L44.7036 37.6855C44.6038 36.9869 44.9273 36.2971 45.5272 35.9301C46.1271 35.5631 46.8888 35.5883 47.4657 35.9952L51.7063 38.9852L74.041 28.1456C74.1025 25.969 73.848 23.7376 73.1637 21.465C71.259 15.1355 66.909 9.92543 61.5283 7.52725C56.7616 5.403 51.5104 5.58012 46.3425 8.03878C38.3232 11.854 36.3444 19.4238 35.8597 22.6444C33.05 20.9911 25.9158 17.7568 17.8965 21.572C12.7286 24.0307 9.28264 27.9913 7.93169 33.026C6.40713 38.709 7.71882 45.3649 11.4414 50.8296C12.6903 52.6629 14.1459 54.1852 15.7442 55.4573Z" fill="#FFAB81"/>
<path id="Vector_2" d="M52.2842 42.5722C51.7069 42.8355 51.0223 42.7961 50.4962 42.4251L48.744 41.1899L50.0951 50.6316C50.2051 51.4012 49.8012 52.1452 49.1101 52.4739C49.0705 52.4927 49.0304 52.5102 48.9891 52.526C48.2249 52.8221 47.3556 52.5513 46.891 51.8726L37.4388 38.064L39.4672 46.4704C39.6634 47.283 39.2653 48.1203 38.513 48.4781L19.1785 57.6757C25.4384 61.0557 32.9647 61.7576 38.9844 62.3156C41.9351 62.5893 44.7221 62.8479 46.8213 63.3651C54.5725 65.2749 56.1809 67.3338 56.2455 67.4207C56.485 67.7966 56.972 67.952 57.3754 67.7601C57.7871 67.5643 57.9863 67.1009 57.8273 66.6718C57.8203 66.6473 57.1547 64.1399 60.6093 56.8061C61.5295 54.8526 63.0842 52.5286 64.7302 50.0683C68.0099 45.166 72.0896 39.0635 73.503 32.2756L52.2842 42.5722Z" fill="#FFAB81"/>
</g>
</svg>
